<svg xmlns="http://www.w3.org/2000/svg" xmlns:xlink="http://www.w3.org/1999/xlink" width="210.234" height="46.504" viewBox="0 0 210.234 46.504">
  <defs>
    <linearGradient id="linear-gradient" x1="0.5" x2="0.5" y2="1" gradientUnits="objectBoundingBox">
      <stop offset="0" stop-color="#fca300"/>
      <stop offset="1" stop-color="#fa1d72"/>
    </linearGradient>
  </defs>
  <g id="Group_56920" data-name="Group 56920" transform="translate(-56.883 -27)">
    <g id="Group_56919" data-name="Group 56919" transform="translate(56.883 27)">
      <path id="Path_4707" data-name="Path 4707" d="M30.323,10.664a23.259,23.259,0,0,1,27.8,21.8c-4.14,0-8.279-.006-12.42,0a1.412,1.412,0,0,0-1.4,1.477c0,2.824-.009,5.65.006,8.474a1.394,1.394,0,0,0,1.4,1.364c1.894.013,3.79,0,5.684,0,0,1.131,0,2.261,0,3.39a.9.9,0,0,0,.358.792c.321.251.752.141,1.128.171a10.464,10.464,0,0,1-1.288,1.5A23.253,23.253,0,1,1,30.323,10.664m-4.585,7.489a10.059,10.059,0,0,0-3.579,7.623,14.346,14.346,0,0,0,2.216,7.217c1.212,2.025,1.322,4.454,1.471,6.748.143,2.933.046,5.884.464,8.8a7.484,7.484,0,0,0,1.466,3.623,2.742,2.742,0,0,0,3.163.75,4.5,4.5,0,0,0,1.945-2.558c.879-2.546,1.432-5.2,2.346-7.731a9.117,9.117,0,0,1,1.945-3.386A5.376,5.376,0,0,1,39.214,38a2.73,2.73,0,0,0-1.447.349,7.614,7.614,0,0,0-3.011,3.213c-1.1,2.019-1.8,4.222-2.695,6.335a13.544,13.544,0,0,1-1.391,2.641,1.109,1.109,0,0,1-1.526.431,3.9,3.9,0,0,1-1.03-2.072c-1.055-4.776-.767-9.74-1.856-14.511-.352-1.5-1.31-2.769-1.676-4.27a10.514,10.514,0,0,1,.3-7.645A7.5,7.5,0,0,1,27.9,19.105a3.521,3.521,0,0,1,3.372-.131c.89.529,1.64,1.258,2.53,1.787a5.369,5.369,0,0,0,4.042.407,17.989,17.989,0,0,0,3.68-1.945,3.337,3.337,0,0,1,3.843.055A7.89,7.89,0,0,1,48.459,23.2a15.4,15.4,0,0,1,.688,6.018,6.241,6.241,0,0,0,.706-3.127,9.945,9.945,0,0,0-2.832-7.116,6.854,6.854,0,0,0-4.432-2.15c-1.731-.085-3.017,1.218-4.432,2a3.829,3.829,0,0,1-3.653.2A20.573,20.573,0,0,0,30.529,16.9a5.606,5.606,0,0,0-4.791,1.255M41.725,46.179a.874.874,0,0,0-.542.859c0,1.23,0,2.463,0,3.693a.9.9,0,0,0,.958.854c1.336.022,2.671,0,4.005.01a1.247,1.247,0,0,0,1.093-.38,1.455,1.455,0,0,0,.178-.92c-.012-1.086.007-2.173-.006-3.258a.91.91,0,0,0-.967-.931c-1.236-.016-2.472,0-3.707-.009A3.477,3.477,0,0,0,41.725,46.179Z" transform="translate(-11.638 -10.214)" fill="url(#linear-gradient)"/>
      <path id="Path_4717" data-name="Path 4717" d="M335.514,168.7a.806.806,0,0,1,.906-.572,13.8,13.8,0,0,1,1.789.046c.486.117.611.68.576,1.113-.053.7.215,1.575-.423,2.086a9.164,9.164,0,0,1-2.518-.012,1,1,0,0,1-.367-.737A13.4,13.4,0,0,1,335.514,168.7Z" transform="translate(-287.354 -144.667)" fill="url(#linear-gradient)"/>
      <path id="Path_4718" data-name="Path 4718" d="M243.806,171.009a1.389,1.389,0,0,1,.667-.094q3.643.011,7.287,0a1.319,1.319,0,0,1,1.4,1.346c.006,1.781,0,3.562,0,5.344a1.388,1.388,0,0,1-1.416,1.405c-2.423.009-4.847,0-7.27,0a1.423,1.423,0,0,1-1.483-1.4c-.01-1.738,0-3.476,0-5.216A1.46,1.46,0,0,1,243.806,171.009Z" transform="translate(-208.619 -147.033)" fill="url(#linear-gradient)"/>
      <path id="Path_4722" data-name="Path 4722" d="M320.981,198.686c-.053-.33.221-.539.432-.737,1.1.018,2.2,0,3.3.006a.679.679,0,0,1,.7.738c0,.891.016,1.784-.01,2.674a.826.826,0,0,1-.845.6c-.9,0-1.79,0-2.684,0a.8.8,0,0,1-.885-.735C320.974,200.384,320.978,199.534,320.981,198.686Z" transform="translate(-275.02 -170.059)" fill="url(#linear-gradient)"/>
      <path id="Path_4730" data-name="Path 4730" d="M285.734,234.37c.273-.224.657-.138.983-.16,1.337.012,2.676-.009,4.014.006a.71.71,0,0,1,.7.689c.022.749-.006,1.5.01,2.246-.013.322.053.7-.2.958a1.267,1.267,0,0,1-.963.233c-1.34-.012-2.679,0-4.017-.007a.733.733,0,0,1-.786-.6c-.064-.738-.006-1.481-.028-2.222C285.47,235.131,285.385,234.639,285.734,234.37Z" transform="translate(-244.773 -200.934)" fill="url(#linear-gradient)"/>
    </g>
    <g id="_f66c24ff" data-name="#f66c24ff" transform="translate(53.956 25.392)">
      <path id="Path_4708" data-name="Path 4708" d="M413.393,117.521c.339-.712,1.322-.465,1.957-.425.551.064.5.734.514,1.137,0,3.222.008,6.444,0,9.664a2.809,2.809,0,0,1-1.52,2.636c-1.957,1.028-4.23.667-6.348.734-2.016-.069-4.136.264-6.041-.563a2.775,2.775,0,0,1-1.841-2.55c-.012-1.572,0-3.146,0-4.717a2.675,2.675,0,0,1,1.332-2.357,7.014,7.014,0,0,1,3.578-.823c2.785,0,5.569.012,8.354-.007.007-.909-.052-1.821.022-2.728m-8.8,4.769c-.791.084-1.962.393-1.979,1.371,0,1.49-.054,2.982.03,4.47.319.825,1.376,1.045,2.169,1.117,2.128.022,4.26.03,6.39,0,.9-.044,2.2-.479,2.16-1.576.017-1.8-.005-3.605,0-5.406C410.44,122.283,407.514,122.219,404.591,122.29Z" transform="translate(-335.126 -99.404)" fill="url(#linear-gradient)"/>
      <path id="Path_4709" data-name="Path 4709" d="M597.918,117.487c.319-.544,1.04-.408,1.572-.413.388,0,.9.217.867.68.062.845.017,1.693.022,2.54,1.564.012,3.131-.062,4.692.047a3.4,3.4,0,0,1-.007,1.821,33.945,33.945,0,0,1-4.677.124c-.015,2.708.01,5.419-.01,8.127.116,1.245-1.89,1.315-2.464.539-.054-2.871-.042-5.75,0-8.621-.571-.086-1.253.094-1.734-.274a1.881,1.881,0,0,1,.111-1.73,12.73,12.73,0,0,1,1.6-.037C597.905,119.355,597.829,118.416,597.918,117.487Z" transform="translate(-482.636 -99.434)" fill="url(#linear-gradient)"/>
      <path id="Path_4710" data-name="Path 4710" d="M688.634,117.141c.675-.19,2.056-.41,2.17.576.022,4.282.01,8.567.005,12.851.044.726-.8.8-1.334.793-.494-.015-1.233-.136-1.149-.8-.027-4.117.005-8.236-.015-12.355C688.34,117.842,688.229,117.341,688.634,117.141Z" transform="translate(-552.12 -99.369)" fill="url(#linear-gradient)"/>
      <path id="Path_4711" data-name="Path 4711" d="M468.133,131.142a6.764,6.764,0,0,1,4.109-1.043c1.987.015,3.973-.012,5.962.01a5.464,5.464,0,0,1,3.81,1.31c.969,1.144.605,2.733.675,4.107.057.521-.074,1.277-.766,1.179-4.117.035-8.233,0-12.35.012.03.655-.121,1.53.591,1.885,1.648,1.021,3.684.111,5.436.707.01.573.247,1.319-.208,1.767-2.029,0-4.141.272-6.1-.393a2.93,2.93,0,0,1-2.167-2.424c-.082-1.572-.012-3.15-.035-4.724a2.809,2.809,0,0,1,1.043-2.392m1.6,1.851a5.467,5.467,0,0,0-.156,1.8c3.538.022,7.077,0,10.615.012a6.526,6.526,0,0,0-.1-1.717,2.381,2.381,0,0,0-2.16-.969c-1.9-.025-3.8,0-5.7-.012A3.111,3.111,0,0,0,469.732,132.993Z" transform="translate(-385.557 -109.249)" fill="url(#linear-gradient)"/>
      <path id="Path_4712" data-name="Path 4712" d="M535.924,130.239a32.05,32.05,0,0,1,4.8-.156c1.979.044,4.114-.257,5.915.761a2.71,2.71,0,0,1,1.458,2.407c.007,2.4.022,4.808-.007,7.213.067.665-.719.722-1.191.766-.506-.017-1.314-.089-1.285-.773-.032-2.318.015-4.635-.015-6.953-.005-.912-1.082-1.245-1.821-1.369-1.51-.114-3.027-.017-4.537-.049-1.134.025-2.375-.153-3.388.482a1.21,1.21,0,0,0-.6,1.179c-.01,2.239.02,4.477-.005,6.716.059.66-.712.736-1.188.766-.514-.027-1.332-.074-1.287-.783-.017-2.471-.047-4.949.015-7.42C532.878,131.4,534.476,130.476,535.924,130.239Z" transform="translate(-434.997 -109.228)" fill="url(#linear-gradient)"/>
      <path id="Path_4713" data-name="Path 4713" d="M626.684,131.918a2.174,2.174,0,0,1,.114-1.908c1.992.124,4.08-.242,5.98.546A2.832,2.832,0,0,1,634.69,133c.012,1.638,0,3.279,0,4.92a2.72,2.72,0,0,1-1.492,2.4,8.1,8.1,0,0,1-3.85.729c-2.2-.017-4.408.017-6.61-.015a5.445,5.445,0,0,1-3.751-1.4c-.806-.865-.717-2.137-.67-3.23a2.761,2.761,0,0,1,1.137-2.192,6.561,6.561,0,0,1,3.7-.966c3.042,0,6.081.007,9.123,0-.175-.378-.368-.8-.806-.919-1.537-.578-3.217-.062-4.794-.405m-5.785,4.257a3.405,3.405,0,0,0,.047,1.92,2.96,2.96,0,0,0,2.471.946c2.137-.007,4.275.01,6.412-.007a2.625,2.625,0,0,0,2.323-1.063c.111-.949.015-1.91.042-2.864-2.842.02-5.681-.007-8.522.012C622.7,135.189,621.465,135.236,620.9,136.175Z" transform="translate(-499.404 -109.182)" fill="url(#linear-gradient)"/>
      <path id="Path_4714" data-name="Path 4714" d="M474.214,138.948c2.389.1,4.892-.321,7.181.561a4.747,4.747,0,0,1,2.74,3.869,11.23,11.23,0,0,1-.358,5.483c-.467,1.226-1.7,1.819-2.659,2.6a6.5,6.5,0,0,1,2.491,1.653,6.1,6.1,0,0,1,.937,3.635c.007,1.819-.272,3.825-1.616,5.174a6.414,6.414,0,0,1-4.455,1.576c-23.857-.057-47.722,0-71.581-.035.008-.652.008-1.3.005-1.957q21.216,0,42.434,0c9.8-.04,19.6.072,29.4-.067a4.644,4.644,0,0,0,3.306-1.127,5.034,5.034,0,0,0,.894-3.578,4.51,4.51,0,0,0-1.2-3.5c-1.166-.983-2.78-1.013-4.228-1.058q-44.229,0-88.457,0,0-.956,0-1.91,33.469,0,66.94,0c4.86.032,9.718-.111,14.581-.062,2.634.044,5.266-.1,7.9-.067,1.468,0,3.244-.336,3.956-1.791a8,8,0,0,0,.284-4.71,3.267,3.267,0,0,0-2.75-2.478,43.6,43.6,0,0,0-5.74-.156A9.118,9.118,0,0,1,474.214,138.948Z" transform="translate(-326.805 -115.901)" fill="url(#linear-gradient)"/>
      <path id="Path_4715" data-name="Path 4715" d="M800.821,140.39a7.058,7.058,0,0,1,4.527-1.406c1.707.01,3.415-.022,5.122.022.005.665.005,1.327.005,1.994-2.029.119-4.072-.116-6.091.136a4.054,4.054,0,0,0-3.637,3.074c-.091,1.238-.01,2.483-.037,3.724,4.586.01,9.175,0,13.761,0,2.256-.077,4.93.015,6.5,1.9,1.525,1.885,1.045,4.45,1.124,6.689.059,1.829.035,3.919-1.324,5.325-1.4,1.507-3.59,1.685-5.52,1.727-3.126,0-6.252.012-9.375,0-1.769-.052-3.726-.227-5.09-1.487a5.347,5.347,0,0,1-1.562-4.072q.008-6.79,0-13.583a5.3,5.3,0,0,1,1.6-4.035m-.106,9.595c-.007,2.6,0,5.2-.005,7.8a3.558,3.558,0,0,0,1.861,2.995,6.391,6.391,0,0,0,3.284.694c3.37,0,6.741,0,10.114,0a4.787,4.787,0,0,0,4.161-2.051c.707-1.077.413-2.414.469-3.622-.059-1.28.25-2.7-.5-3.835a4.844,4.844,0,0,0-4.119-1.969C810.888,149.977,805.8,149.992,800.715,149.984Z" transform="translate(-635.624 -115.936)" fill="url(#linear-gradient)"/>
      <path id="Path_4716" data-name="Path 4716" d="M920.306,139.155a17.644,17.644,0,0,1,3.558-.175c2.308,0,4.618,0,6.926,0a7.137,7.137,0,0,1,4.156,1.285,5.256,5.256,0,0,1,1.732,4.144q-.011,6.8,0,13.6a5.5,5.5,0,0,1-1.421,3.966,6.687,6.687,0,0,1-4.47,1.554c-2.385.106-4.771.02-7.156.049-2.078-.022-4.408-.032-6.071-1.473a6.1,6.1,0,0,1-1.594-4.846c.01-4.193,0-8.389,0-12.582a6.263,6.263,0,0,1,1.028-3.65,5.235,5.235,0,0,1,3.309-1.868m1.658,1.885a5.6,5.6,0,0,0-3.007.941,3.54,3.54,0,0,0-1.5,2.921q-.015,6.3,0,12.6a3.633,3.633,0,0,0,1.754,3.185,6.278,6.278,0,0,0,3.447.776c2.8-.022,5.609.042,8.414-.032,1.9-.094,3.951-1.381,4.1-3.42.017-4.455,0-8.913.007-13.368a3.477,3.477,0,0,0-1.6-2.765,6.684,6.684,0,0,0-3.756-.862C927.2,141.04,924.581,140.99,921.964,141.04Z" transform="translate(-723.518 -115.929)" fill="url(#linear-gradient)"/>
      <path id="Path_4719" data-name="Path 4719" d="M402.7,197.414c.343,0,.687,0,1.033.017a1.269,1.269,0,0,1-.012.983c-.346.017-.689.025-1.03.02-.086-.183-.173-.366-.257-.549Z" transform="translate(-336.879 -159.93)" fill="#636363"/>
      <path id="Path_4720" data-name="Path 4720" d="M463.3,197.21c.316.077.741-.064.986.2.044.418.037.838.042,1.255.7.01,1.406,0,2.11.015l.04.843c-.717.032-1.433.03-2.15.02-.04,1.263.042,2.528-.035,3.79-.069.573-1.132.5-1.112-.1-.044-1.228,0-2.456-.012-3.684l-.781-.027a3.4,3.4,0,0,1,.044-.744,4.9,4.9,0,0,1,.736-.2A5.112,5.112,0,0,1,463.3,197.21Z" transform="translate(-382.018 -159.777)" fill="#636363"/>
      <path id="Path_4721" data-name="Path 4721" d="M559.132,198.33c.511-1.166,2.011-1,3.062-1.02a1.311,1.311,0,0,1,.052.835c-.647.316-1.539-.136-2.039.509a16.9,16.9,0,0,0,2.093.114c-.017.284-.037.571-.054.857l-2.056-.007c-.01,1.243.032,2.486-.01,3.729.057.553-1.117.615-1.082.054C559.068,201.713,559,200.011,559.132,198.33Z" transform="translate(-454.802 -159.852)" fill="#636363"/>
      <path id="Path_4723" data-name="Path 4723" d="M403.113,203.35c.339,0,.68,0,1.021.02.069,1.6.017,3.2.032,4.806-.331.062-.662.119-.991.168A25.166,25.166,0,0,1,403.113,203.35Z" transform="translate(-337.323 -164.4)" fill="#636363"/>
      <path id="Path_4724" data-name="Path 4724" d="M421.556,204.288c.136-.82,1.05-1.132,1.777-1.181a31.593,31.593,0,0,1,3.521.017c.749.054,1.648.539,1.606,1.4-.007,1.127.054,2.263-.04,3.388-.287.292-.7.141-1.045.129-.084-1.1.01-2.2-.057-3.3-.235-.991-1.485-.726-2.244-.791-.783.069-1.942-.217-2.36.655-.131,1.149.052,2.315-.119,3.464-.373-.012-.922.193-1.053-.326A33.53,33.53,0,0,1,421.556,204.288Z" transform="translate(-351.241 -164.186)" fill="#636363"/>
      <path id="Path_4725" data-name="Path 4725" d="M490.729,204.518c0-.912.937-1.361,1.73-1.4,1.171-.069,2.35-.052,3.524-.012.739.017,1.646.341,1.779,1.171a4.779,4.779,0,0,1-.057,1.678c-1.964.319-4.005-.047-5.992.19.242.3.331.885.8.936a18.691,18.691,0,0,0,2.073.086,7.679,7.679,0,0,1-.042.924c-1.2-.037-2.716.23-3.6-.781a6.322,6.322,0,0,1-.213-2.792m1.065.64c1.638.01,3.276.022,4.912-.007-.084-.44-.188-1.07-.754-1.107a14.2,14.2,0,0,0-3.239-.02C492.12,204.041,491.821,204.637,491.794,205.158Z" transform="translate(-403.323 -164.189)" fill="#636363"/>
      <path id="Path_4726" data-name="Path 4726" d="M532.612,204.082c.553-1.193,2.093-.971,3.175-.979,0,.287.012.573.017.86-.675.1-1.789-.252-2.058.6-.106,1.077.064,2.169-.067,3.244-.242.586-1.275.361-1.164-.306A22.224,22.224,0,0,1,532.612,204.082Z" transform="translate(-434.808 -164.205)" fill="#636363"/>
      <path id="Path_4727" data-name="Path 4727" d="M583.512,203.109c1.166.027,2.706-.279,3.5.808a9.633,9.633,0,0,1,.079,3.1c-.319.988-1.529,1.038-2.389,1.092a15.36,15.36,0,0,1-3.929-.21,1.7,1.7,0,0,1,.084-3.2c1.688-.4,3.435-.089,5.147-.235-.647-.684-1.658-.437-2.5-.494,0-.287,0-.571,0-.857m-2.246,3.968a29.838,29.838,0,0,0,3.9.057c.4.02.625-.339.867-.593-.007-.381-.012-.761-.01-1.142-1.5.047-3.015-.094-4.51.077C580.762,205.649,580.791,206.608,581.266,207.077Z" transform="translate(-470.338 -164.203)" fill="#636363"/>
      <path id="Path_4728" data-name="Path 4728" d="M623.612,203.706a3.053,3.053,0,0,1,2.318-.615c1.529.032,3.064-.057,4.591.057-.012.269-.025.541-.034.81-1.772.074-3.556-.089-5.32.091-.734.059-.8.937-.761,1.507-.03.591-.005,1.537.8,1.562,1.754.1,3.516,0,5.275.047.007.309.22.941-.3.927-1.495.054-2.992.03-4.487.01-.828-.044-1.9-.114-2.315-.961a8.925,8.925,0,0,1-.089-1.853C623.316,204.753,623.19,204.123,623.612,203.706Z" transform="translate(-503.162 -164.202)" fill="#636363"/>
      <path id="Path_4729" data-name="Path 4729" d="M665.747,204.286c.143-.9,1.179-1.174,1.957-1.2a29.487,29.487,0,0,1,3.709.064,1.5,1.5,0,0,1,1.379,1.621c-.079.4.188,1.142-.343,1.265-1.913.111-3.835-.082-5.742.1.242.306.331.89.805.936.65.124,1.325-.007,1.977.131.21.252.049.593.039.882-1.223-.049-2.869.257-3.672-.909a8.074,8.074,0,0,1-.109-2.893m1.043.87c1.609.027,3.22-.027,4.828.035a.942.942,0,0,0-.679-1.154,14.294,14.294,0,0,0-3.217-.02A1.06,1.06,0,0,0,666.79,205.156Z" transform="translate(-535.075 -164.184)" fill="#636363"/>
    </g>
  </g>
</svg>
